# xmcd
#
# Track frame offsets:
#	150
#	16883
#	27624
#	45413
#	67158
#	80137
#	98104
#	113215
#	128340
#	159808
#	171479
#	179282
#	198826
#	233795
#	242161
#	272767
#
# Disc length: 3806 seconds
#
# Revision: 0
# Processed by: cddbd v1.5.2PL0 Copyright (c) Steve Scherf et al.
# Submitted via: EasyCDDAExtractor 16.0.6.1
#
DISCID=d20edc10
DTITLE=Ψαραντώνης - Παλιό κρασί είν' η σκέψη μου-Ψαραντώνης
DYEAR=1994
DGENRE=Κρητική
TTITLE0=Άνευ ερμηνευτού - Χώμα και φως [οργανικό]
TTITLE1=Ψαραντώνης - Κρίνος
TTITLE2=Ψαραντώνης - Σαν είναι δυό δέντρα μαζί [παραδ., διασκ. Ψαραντώνης]
TTITLE3=Ψαραντώνης - Διαμάντι και ρουμπί
TTITLE4=Ψαραντώνης - Οχέντρα [στ. παραδοσιακοί]
TTITLE5=Άνευ ερμηνευτού - Κοντυλιές [παραδ., διασκ. Ψαραντώνης]
TTITLE6=Ψαραντώνης - Πού 'σουνα και δε σ' έβλεπα
TTITLE7=Ψαραντώνης - Με τσι μικρούς ήμουν μικρός
TTITLE8=Ψαραντώνης - Όρτσες
TTITLE9=Ψαραντώνης - Παλιό κρασί είν' η σκέψη μου
TTITLE10=Ψαραντώνης - Αγγελοκάμωτη [παραδ., διασκ. Ψαραντώνης]
TTITLE11=Άνευ ερμηνευτού - Ρέθεμνο [οργανικό]
TTITLE12=Ψαραντώνης - Μην το θαρρείς πως σ' αγαπώ [παραδ., διασκ. Ψαραντώνης]
TTITLE13=Άνευ ερμηνευτού - Τριζάλης [παραδ., διασκ. Ψαραντώνης]
TTITLE14=Ψαραντώνης - Μαλεβυζιώτης [παραδ., διασκ. Ψαραντώνης]
TTITLE15=Ψαραντώνης - Κουτρουλιανό νερό [παραδ., διασκ. Ψαραντώνης]
EXTD=
EXTT0=
EXTT1=
EXTT2=
EXTT3=
EXTT4=
EXTT5=
EXTT6=
EXTT7=
EXTT8=
EXTT9=
EXTT10=
EXTT11=
EXTT12=
EXTT13=
EXTT14=
EXTT15=
PLAYORDER=
